<svg xmlns="http://www.w3.org/2000/svg" version="1.1"
    xmlns:xlink="http://www.w3.org/1999/xlink"
    xmlns:svgjs="http://svgjs.dev/svgjs" width="200" height="200" viewBox="0 0 1500 905">
    <g transform="matrix(1,0,0,1,-0.9090909090909918,-0.21716167624634863)">
        <svg viewBox="0 0 396 239" data-background-color="#ece3cb" preserveAspectRatio="xMidYMid meet" height="905" width="1500"
            xmlns="http://www.w3.org/2000/svg"
            xmlns:xlink="http://www.w3.org/1999/xlink">
            <g id="tight-bounds" transform="matrix(1,0,0,1,0.2400000000000091,0.05734987914129874)">
                <svg viewBox="0 0 395.52 238.8853002417174" height="238.8853002417174" width="395.52">
                    <g>
                        <svg viewBox="0 0 395.52 238.8853002417174" height="238.8853002417174" width="395.52">
                            <g transform="matrix(1,0,0,1,0,147.64069915232298)">
                                <svg viewBox="0 0 395.52 91.24460108939442" height="91.24460108939442" width="395.52">
                                    <g id="textblocktransform">
                                        <svg viewBox="0 0 395.52 91.24460108939442" height="91.24460108939442" width="395.52" id="textblock">
                                            <g>
                                                <svg viewBox="0 0 395.52 91.24460108939442" height="91.24460108939442" width="395.52">
                                                    <g transform="matrix(1,0,0,1,0,0)">
                                                        <svg width="395.52" viewBox="2 -35.5 156.04 36" height="91.24460108939442" data-palette-color="#a4cbb4">
                                                            <g class="wordmark-text-0" data-fill-palette-color="primary" id="text-0">
                                                                <path d="M9.7 0L9.7 0Q8.45 0 6.08 0 3.7 0 2.85-0.35 2-0.7 2-1.45L2-1.45 2-33Q2-34.15 5.08-34.83 8.15-35.5 11.65-35.5 15.15-35.5 16.65-34.6 18.15-33.7 18.4-32.7L18.4-32.7 21.8-19.5 22.25-19.5 25.45-32.1Q25.8-33.45 28.73-34.48 31.65-35.5 35.15-35.5 38.65-35.5 40.33-34.95 42-34.4 42-33.55L42-33.55 42-1.45Q42-0.8 39.15-0.4 36.3 0 32.2 0 28.1 0 28.1-1.45L28.1-1.45Q28.1-5.4 28.95-15.5L28.95-15.5 28.5-15.5 25.9-2.45Q25.75-1.7 24.68-1.35 23.6-1 21.45-1 19.3-1 18.82-1.3 18.35-1.6 18.2-2.45L18.2-2.45 15.5-15.5 15.05-15.5Q15.95-5.2 15.95-1.45L15.95-1.45Q15.95-0.15 9.7 0ZM60.55-11.3L58.9-11.3Q58.9-8.05 62-8.05L62-8.05Q63.8-8.05 66.7-9.28 69.6-10.5 69.75-10.5L69.75-10.5Q70.7-10.5 72.25-7.65 73.8-4.8 73.8-3.45L73.8-3.45Q73.8-1.5 69.8-0.5 65.8 0.5 61.97 0.5 58.15 0.5 55.57-0.1 53-0.7 51.37-1.63 49.75-2.55 48.52-3.9 47.3-5.25 46.7-6.48 46.1-7.7 45.75-9.2L45.75-9.2Q45.25-11.4 45.25-13.75L45.25-13.75Q45.25-22.85 50-26.3L50-26.3Q52.35-28.05 55.25-28.75 58.15-29.45 62.1-29.45L62.1-29.45Q74.75-29.45 74.75-20.65L74.75-20.65Q74.75-11.3 60.55-11.3L60.55-11.3ZM58.8-18.6L58.8-18.6 58.8-15.3Q60.25-15.3 61.17-16.45 62.1-17.6 62.1-19.25L62.1-19.25Q62.1-22.25 60.55-22.25L60.55-22.25Q58.8-22.25 58.8-18.6ZM123.3-16.5L123.3-16.5 123.3-1.2Q123.3-0.65 120.47-0.33 117.65 0 114.62 0 111.59 0 110.7-0.28 109.8-0.55 109.8-1.2L109.8-1.2 109.8-15.05Q109.8-22.2 108.34-22.2L108.34-22.2Q108-22.2 107.65-21.9 107.3-21.6 107.3-20.85L107.3-20.85 107.3-1.2Q107.3-0.65 104.47-0.33 101.65 0 98.59 0 95.55 0 94.67-0.28 93.8-0.55 93.8-1.2L93.8-1.2 93.8-15.05Q93.8-20.6 93.09-21.7L93.09-21.7Q92.75-22.2 92.2-22.2L92.2-22.2Q91.25-22.2 91.25-20.85L91.25-20.85 91.25-1.2Q91.25-0.65 88.4-0.33 85.55 0 82.52 0 79.5 0 78.62-0.28 77.75-0.55 77.75-1.2L77.75-1.2 77.75-25.85Q77.75-26.9 80.62-27.95 83.5-29 86.7-29 89.9-29 90.3-27.15L90.3-27.15 90.75-24.95 91.09-24.95Q92.55-27.8 95.9-29L95.9-29Q97.3-29.45 99.5-29.45L99.5-29.45Q103.9-29.45 105.9-24.95L105.9-24.95Q106.55-26.45 109.15-27.95 111.75-29.45 114.9-29.45L114.9-29.45Q119.84-29.45 121.57-26.38 123.3-23.3 123.3-16.5ZM142.19 0.45L142.19 0.45Q138.44 0.45 135.74-0.2 133.04-0.85 130.84-2.5L130.84-2.5Q126.29-5.8 126.29-14.8L126.29-14.8Q126.29-22.8 130.94-26.25L130.94-26.25Q135.29-29.45 142.19-29.45L142.19-29.45Q145.14-29.45 147.24-29.18 149.34-28.9 151.52-28 153.69-27.1 155.02-25.55 156.34-24 157.19-21.28 158.04-18.55 158.04-14.8L158.04-14.8Q158.04-7.2 153.74-3.38 149.44 0.45 142.19 0.45ZM140.44-9.3Q140.79-7.5 141.17-7.15 141.54-6.8 142.17-6.8 142.79-6.8 143.17-7.15 143.54-7.5 143.87-9.3 144.19-11.1 144.19-13.83 144.19-16.55 144.07-18.03 143.94-19.5 143.77-20.3 143.59-21.1 143.29-21.55L143.29-21.55Q142.84-22.2 142.22-22.2 141.59-22.2 141.19-21.83 140.79-21.45 140.44-19.63 140.09-17.8 140.09-14.45 140.09-11.1 140.44-9.3Z" fill="#a4cbb4" data-fill-palette-color="primary"></path>
                                                            </g>
                                                        </svg>
                                                    </g>
                                                </svg>
                                            </g>
                                        </svg>
                                    </g>
                                </svg>
                            </g>
                            <g transform="matrix(1,0,0,1,134.7107053517646,0)">
                                <svg viewBox="0 0 126.09858929647076 126.1000387055431" height="126.1000387055431" width="126.09858929647076">
                                    <g>
                                        <svg xmlns="http://www.w3.org/2000/svg"
                                            xmlns:xlink="http://www.w3.org/1999/xlink" version="1.1" x="0" y="0" viewBox="6.000000000000002 6.500000000000002 87.00000000000001 87.00099999999999" enable-background="new 0 0 100 100" xml:space="preserve" height="126.1000387055431" width="126.09858929647076" class="icon-icon-0" data-fill-palette-color="accent" id="icon-0">
                                            <g fill="#ef9994" data-fill-palette-color="accent">
                                                <path d="M86 43.75c-3.525 0-6.435 2.25-6.921 6.25H60c0-3-0.62-4.209-1.681-5.796l15.82-15.945c0.576 0.231 1.201 0.304 1.86 0.304 2.762 0 5-2.27 5-5.031s-2.238-5.016-5-5.016-5 2.23-5 4.992c0 1.289 0.501 2.448 1.302 3.335L56.883 42.26c-1.566-1.489-3.609-2.483-5.883-2.709V20.42c3.391-0.486 6-3.394 6-6.92 0-3.866-3.134-7-7-7s-7 3.134-7 7c0 3.526 2.609 6.434 6 6.92v19.13c-2.135 0.212-4.066 1.102-5.592 2.443L28.489 27.075C29.419 26.167 30 24.903 30 23.5c0-2.762-2.238-5-5-5s-5 2.238-5 5c0 2.762 2.238 5 5 5 0.619 0 1.206-0.127 1.753-0.333l15.292 15.542C40.767 45.388 40 47 40 50H19.92c-0.486-4-3.395-6.25-6.92-6.25-3.866 0-7 3.009-7 6.875 0 3.867 3.134 7.188 7 7.188 3.526 0 6.434-2.813 6.92-5.813h20.28c0.38 1 1.29 3.3 2.557 4.633L28.338 70.927c-0.886-0.801-2.049-1.364-3.338-1.364-2.762 0-5 2.207-5 4.969s2.238 4.984 5 4.984 5-2.246 5-5.008c0-0.659-0.135-1.289-0.366-1.864l14.82-14.822c1.326 0.886 2.875 1.462 4.546 1.628v20.13c-3.391 0.486-6 3.396-6 6.921 0 3.867 3.134 7 7 7s7-3.133 7-7c0-3.525-2.609-6.435-6-6.921v-20.13c1.887-0.188 3.611-0.906 5.042-1.994l15.291 15.291C71.127 73.294 71 73.881 71 74.5c0 2.762 2.238 5 5 5s5-2.238 5-5-2.238-5-5-5c-1.402 0-2.666 0.581-3.574 1.511L57.507 56.342C58.635 55.059 59.446 53 59.799 52h19.28c0.486 3 3.396 5.75 6.921 5.75 3.866 0 7-3.133 7-7C93 46.884 89.866 43.75 86 43.75z" fill="#ef9994" data-fill-palette-color="accent"></path>
                                            </g>
                                        </svg>
                                    </g>
                                </svg>
                            </g>
                            <g></g>
                        </svg>
                    </g>
                    <defs></defs>
                </svg>
                <rect width="395.52" height="238.8853002417174" fill="none" stroke="none" visibility="hidden"></rect>
            </g>
        </svg>
    </g>
</svg>