<svg
          version="1.0"
          xmlns="http://www.w3.org/2000/svg"
          width="150px"
          height="150px"
          viewBox="0 0 512.000000 512.000000"
          preserveAspectRatio="xMidYMid meet"
        >
          <g
            transform="translate(0.000000,512.000000) scale(0.100000,-0.100000)"
            fill="#000000"
            stroke="none"
          >
            <path
              d="M577 2913 c-4 -3 -7 -163 -7 -355 l0 -348 55 0 56 0 -3 260 c-2 143
-1 260 2 259 3 0 61 -72 129 -160 164 -211 147 -211 310 -4 67 85 125 157 129
159 4 2 6 -112 4 -255 l-3 -259 56 0 55 0 -2 353 -3 352 -50 3 -50 3 -138
-181 c-77 -99 -143 -182 -147 -185 -5 -3 -72 78 -150 180 l-142 185 -47 0
c-26 0 -51 -3 -54 -7z"
            />
            <path
              d="M1845 2736 c-101 -32 -168 -87 -201 -164 -23 -56 -21 -152 6 -207 77
-159 338 -212 541 -110 l50 26 -22 37 c-12 20 -23 38 -24 40 -1 1 -29 -10 -61
-25 -51 -24 -71 -28 -149 -28 -79 1 -98 4 -148 28 -52 26 -97 70 -97 96 0 8
78 11 260 11 l260 0 0 58 c-1 106 -63 189 -174 231 -65 24 -176 27 -241 7z
m213 -102 c46 -19 92 -62 92 -86 0 -17 -14 -18 -205 -18 -113 0 -205 3 -205 6
0 23 43 69 84 89 60 30 174 35 234 9z"
            />
            <path
              d="M2823 2740 c-48 -10 -114 -42 -132 -64 -22 -26 -31 -18 -31 24 l0 40
-50 0 -50 0 0 -265 0 -265 49 0 49 0 4 158 c3 143 5 160 26 194 64 102 226
117 282 26 18 -30 20 -50 20 -205 l0 -173 55 0 55 0 0 151 c0 138 2 155 22
191 33 59 97 93 174 93 48 0 67 -5 84 -20 43 -38 50 -74 50 -250 l0 -165 56 0
56 0 -4 193 c-3 183 -4 195 -29 242 -36 70 -90 99 -185 99 -59 0 -81 -5 -136
-32 -35 -17 -72 -40 -82 -51 -17 -19 -19 -19 -59 24 -33 33 -53 45 -95 54 -59
12 -69 12 -129 1z"
            />
            <path
              d="M4039 2737 c-167 -47 -252 -187 -207 -341 17 -58 108 -147 172 -169
240 -82 477 40 479 246 1 110 -62 201 -171 249 -59 26 -206 34 -273 15z m219
-103 c113 -47 153 -163 86 -252 -75 -97 -272 -108 -363 -20 -40 39 -51 65 -51
122 0 95 96 166 222 166 39 0 85 -7 106 -16z"
            />
          </g>
        </svg>